<svg xmlns="http://www.w3.org/2000/svg" viewBox="0 0 128 128" role="img" aria-label="Subir música">
  <defs>
    <linearGradient id="g" x1="0" y1="0" x2="1" y2="1">
      <stop offset="0" stop-color="#ffffff" stop-opacity="0.95"/>
      <stop offset="1" stop-color="#ff6b35" stop-opacity="0.95"/>
    </linearGradient>
    <filter id="s" x="-30%" y="-30%" width="160%" height="160%">
      <feDropShadow dx="0" dy="6" stdDeviation="6" flood-color="#000" flood-opacity="0.35"/>
    </filter>
  </defs>
  <g filter="url(#s)">
    <path fill="url(#g)" d="M64 16c20.4 0 38 14.2 42.3 34.1a6 6 0 0 1-11.7 2.6C91.5 38 78.9 28 64 28c-17.7 0-32.5 14.1-33.1 31.7a6 6 0 1 1-12-.4C19.8 35.1 39.6 16 64 16Z"/>
    <path fill="url(#g)" d="M41 72a23 23 0 0 1 46 0v19.5c0 11.6-10.8 20.5-23.5 20.5S40 103.1 40 91.5C40 80.3 50.4 72 63 72c4.8 0 9.3 1.2 13 3.3V72a11 11 0 0 0-22 0v12.2a6 6 0 1 1-12 0V72Z"/>
    <path fill="url(#g)" d="M64 40a6 6 0 0 1 6 6v26.5l5.8-5.8a6 6 0 1 1 8.4 8.6l-16 15.6a6 6 0 0 1-8.4 0l-16-15.6a6 6 0 1 1 8.4-8.6l5.8 5.8V46a6 6 0 0 1 6-6Z"/>
  </g>
</svg>
