<svg xmlns="http://www.w3.org/2000/svg" viewBox="0 0 128 128" role="img" aria-label="Nota musical">
  <defs>
    <linearGradient id="g" x1="0" y1="0" x2="1" y2="1">
      <stop offset="0" stop-color="#ffffff" stop-opacity="0.95"/>
      <stop offset="1" stop-color="#ff8c42" stop-opacity="0.95"/>
    </linearGradient>
    <filter id="s" x="-30%" y="-30%" width="160%" height="160%">
      <feDropShadow dx="0" dy="6" stdDeviation="6" flood-color="#000" flood-opacity="0.35"/>
    </filter>
  </defs>
  <g filter="url(#s)">
    <path fill="url(#g)" d="M84 18a6 6 0 0 1 6 6v57.2c0 13.4-11.8 24.8-27 24.8-13.8 0-25-9.6-25-21.5S49.2 63 63 63c5.8 0 11.1 1.7 15 4.6V36.8l-38 9.5a6 6 0 1 1-2.9-11.6l45.4-11.4A6 6 0 0 1 84 18Z"/>
    <circle cx="59.5" cy="85.5" r="12.5" fill="#ffffff" fill-opacity="0.15"/>
  </g>
</svg>
